<svg width="158" height="158" viewBox="0 0 158 158" fill="none" xmlns="http://www.w3.org/2000/svg">
<path d="M158 0H0V158H158V0Z" fill="#00B469"/>
<path d="M110.205 62.4995H109.692C104.397 62.4995 99.8087 67.4758 97.4405 69.807L78.9154 87.4504L60.3903 69.7978C58.0222 67.4896 53.4382 62.4902 48.1434 62.4902H47.6263C45.7988 62.4902 43.9892 62.8503 42.3008 63.5498C40.6125 64.2493 39.0785 65.2745 37.7864 66.567C36.4944 67.8595 35.4696 69.3938 34.7707 71.0824C34.0717 72.771 33.7123 74.5808 33.7129 76.4083V131.559H62.0568V90.6956L73.5652 100.131C73.9852 100.478 74.4192 100.75 74.7977 101.055C75.7948 101.816 77.2813 102.684 78.9154 102.629C80.5542 102.684 82.036 101.816 83.0331 101.055C83.4163 100.764 83.8456 100.491 84.2657 100.131L95.7833 90.6956V131.559H124.132V76.4175C124.132 74.589 123.771 72.7784 123.071 71.0892C122.371 69.4 121.345 67.8652 120.052 66.5727C118.759 65.2802 117.223 64.2552 115.534 63.5563C113.844 62.8573 112.033 62.4982 110.205 62.4995Z" fill="white"/>
<path d="M110.357 55.2395C113.245 55.2167 116.061 54.3394 118.451 52.7183C120.841 51.0971 122.697 48.8047 123.786 46.13C124.875 43.4553 125.148 40.518 124.57 37.6886C123.992 34.8591 122.589 32.2641 120.539 30.2308C118.488 28.1974 115.881 26.8167 113.047 26.2628C110.212 25.7088 107.278 26.0064 104.612 27.118C101.947 28.2296 99.6703 30.1055 98.0696 32.5091C96.4688 34.9127 95.6155 37.7365 95.6172 40.6243C95.6244 42.5521 96.0116 44.4595 96.7564 46.2375C97.5012 48.0155 98.5892 49.6294 99.9581 50.9867C101.327 52.344 102.95 53.4182 104.734 54.1479C106.519 54.8777 108.429 55.2486 110.357 55.2395Z" fill="white"/>
<path d="M47.4738 55.2395C44.586 55.2167 41.7696 54.3394 39.3797 52.7183C36.9897 51.0971 35.1333 48.8047 34.0443 46.13C32.9554 43.4553 32.6828 40.518 33.2608 37.6886C33.8388 34.8591 35.2415 32.2641 37.2922 30.2308C39.3429 28.1974 41.9497 26.8167 44.784 26.2628C47.6182 25.7088 50.553 26.0064 53.2184 27.118C55.8838 28.2296 58.1604 30.1055 59.7612 32.5091C61.362 34.9127 62.2153 37.7365 62.2135 40.6243C62.2063 42.5521 61.8192 44.4595 61.0743 46.2375C60.3295 48.0155 59.2415 49.6294 57.8726 50.9867C56.5037 52.344 54.8807 53.4182 53.0964 54.1479C51.3121 54.8777 49.4015 55.2486 47.4738 55.2395Z" fill="white"/>
</svg>
