<svg xmlns="http://www.w3.org/2000/svg" viewBox="0 0 100 100">
  <rect width="100" height="100" rx="18" fill="#00B469"/>
  <g fill="#fff" transform="translate(14, 18) scale(2.6)">
    <circle cx="4.077" cy="4.11" r="4.11"/>
    <circle cx="21.756" cy="4.11" r="4.11"/>
    <path d="M21.714 10.266h-.144c-1.49 0-2.779 1.401-3.445 2.055l-5.208 4.96-5.208-4.96c-.667-.657-1.956-2.055-3.45-2.055h-.145a3.911 3.911 0 0 0-3.912 3.912v15.506h7.97v-11.49l3.234 2.653c.12.097.24.174.346.256.28.215.698.458 1.158.443.46.015.878-.23 1.158-.443.108-.082.228-.159.346-.256l3.235-2.653v11.49h7.97V14.178a3.913 3.913 0 0 0-3.905-3.912z"/>
  </g>
</svg>
